<svg width="30" height="30" viewBox="0 0 30 30" fill="none" xmlns="http://www.w3.org/2000/svg">
<path d="M15 9.375H9.375M9.375 9.375H7.4725C6.46375 9.375 5.43125 9.61 4.81 10.405C4.1475 11.2538 3.4375 12.6988 3.4375 15C3.4375 17.3 4.1475 18.7463 4.81 19.595C5.43125 20.39 6.46375 20.625 7.4725 20.625H9.375M9.375 9.375V7.4725C9.375 6.46375 9.61 5.43125 10.405 4.81C11.2538 4.1475 12.6988 3.4375 15 3.4375C17.3 3.4375 18.7462 4.1475 19.595 4.81C20.39 5.43125 20.625 6.46375 20.625 7.4725V9.375M15 20.625H20.625M20.625 20.625H22.5262C23.535 20.625 24.5687 20.39 25.1887 19.595C25.8525 18.7463 26.5625 17.3013 26.5625 15C26.5625 12.7 25.8525 11.2538 25.19 10.405C24.5688 9.61 23.535 9.375 22.5275 9.375H20.625M20.625 20.625V22.5263C20.625 23.535 20.39 24.5688 19.595 25.1888C18.7462 25.8525 17.3012 26.5625 15 26.5625C12.7 26.5625 11.2538 25.8525 10.405 25.19C9.61 24.5688 9.375 23.535 9.375 22.5275V20.625M20.625 9.375V12.5C20.625 13.163 20.3616 13.7989 19.8928 14.2678C19.4239 14.7366 18.788 15 18.125 15H11.875C11.212 15 10.5761 15.2634 10.1072 15.7322C9.63839 16.2011 9.375 16.837 9.375 17.5V20.625" stroke="white" stroke-width="2.1875" stroke-linecap="round" stroke-linejoin="round"/>
<path d="M18.75 23.125C18.75 23.3736 18.6512 23.6121 18.4754 23.7879C18.2996 23.9637 18.0611 24.0625 17.8125 24.0625C17.5639 24.0625 17.3254 23.9637 17.1496 23.7879C16.9738 23.6121 16.875 23.3736 16.875 23.125C16.875 22.8764 16.9738 22.6379 17.1496 22.4621C17.3254 22.2863 17.5639 22.1875 17.8125 22.1875C18.0611 22.1875 18.2996 22.2863 18.4754 22.4621C18.6512 22.6379 18.75 22.8764 18.75 23.125ZM11.25 6.875C11.25 6.62636 11.3488 6.3879 11.5246 6.21209C11.7004 6.03627 11.9389 5.9375 12.1875 5.9375C12.4361 5.9375 12.6746 6.03627 12.8504 6.21209C13.0262 6.3879 13.125 6.62636 13.125 6.875C13.125 7.12364 13.0262 7.3621 12.8504 7.53791C12.6746 7.71373 12.4361 7.8125 12.1875 7.8125C11.9389 7.8125 11.7004 7.71373 11.5246 7.53791C11.3488 7.3621 11.25 7.12364 11.25 6.875Z" fill="white"/>
</svg>
